<?xml version="1.0" encoding="utf-8"?>
<!-- Generator: Adobe Illustrator 18.1.1, SVG Export Plug-In . SVG Version: 6.00 Build 0)  -->
<!DOCTYPE svg PUBLIC "-//W3C//DTD SVG 1.1//EN" "http://www.w3.org/Graphics/SVG/1.1/DTD/svg11.dtd">
<svg version="1.1" id="Layer_1" xmlns="http://www.w3.org/2000/svg" xmlns:xlink="http://www.w3.org/1999/xlink" x="0px" y="0px"
	 viewBox="0 0 250 250" enable-background="new 0 0 250 250" xml:space="preserve">
<g>
	<path fill="none" stroke="#EDE611" stroke-width="12" stroke-miterlimit="10" d="M99.1,161.7c-14.8-5.6-25.3-19.9-25.3-36.7
		c0-21.7,17.6-39.2,39.2-39.2c16.3,0,30.2,9.9,36.2,24"/>
	<g>
		
			<line fill="none" stroke="#EDE611" stroke-width="12" stroke-linecap="round" stroke-miterlimit="10" x1="110" y1="67" x2="110" y2="44"/>
		
			<line fill="none" stroke="#EDE611" stroke-width="12" stroke-linecap="round" stroke-miterlimit="10" x1="31" y1="128" x2="55" y2="128"/>
		
			<line fill="none" stroke="#EDE611" stroke-width="12" stroke-linecap="round" stroke-miterlimit="10" x1="74" y1="165" x2="56.9" y2="182.1"/>
		
			<line fill="none" stroke="#EDE611" stroke-width="12" stroke-linecap="round" stroke-miterlimit="10" x1="172.1" y1="66.9" x2="155.8" y2="83.2"/>
		
			<line fill="none" stroke="#EDE611" stroke-width="12" stroke-linecap="round" stroke-miterlimit="10" x1="57.2" y1="66.5" x2="74" y2="83.2"/>
	</g>
</g>
<path fill="none" stroke="#DCDCDC" stroke-width="12" stroke-linecap="round" stroke-miterlimit="10" d="M189,190
	c22.8,0,29.7-10.4,29.7-23.2c0-11.4-8.3-20.9-19.2-22.8c-3.3-18.1-19.2-31.8-38.3-31.8c-12.7,0-24,6.1-31.1,15.5
	c-16.2,1.2-28.9,14.7-28.9,31.1c0,17.2,10.4,31.2,37.7,31.2H189z"/>
</svg>
