<?xml version="1.0" encoding="utf-8"?>
<!-- Generator: Adobe Illustrator 18.1.1, SVG Export Plug-In . SVG Version: 6.00 Build 0)  -->
<!DOCTYPE svg PUBLIC "-//W3C//DTD SVG 1.1//EN" "http://www.w3.org/Graphics/SVG/1.1/DTD/svg11.dtd">
<svg version="1.1" id="Layer_1" xmlns="http://www.w3.org/2000/svg" xmlns:xlink="http://www.w3.org/1999/xlink" x="0px" y="0px"
	 viewBox="0 0 250 250" enable-background="new 0 0 250 250" xml:space="preserve">
<path fill="none" stroke="#EDE611" stroke-width="12" stroke-miterlimit="10" d="M68.3,128.4c-2.3-5-3.6-10.5-3.6-16.4
	c0-21.7,17.6-39.2,39.2-39.2c15.4,0,28.7,8.8,35.1,21.7"/>
<line fill="none" stroke="#EDE611" stroke-width="12" stroke-linecap="round" stroke-miterlimit="10" x1="101" y1="54" x2="101" y2="31"/>
<line fill="none" stroke="#EDE611" stroke-width="12" stroke-linecap="round" stroke-miterlimit="10" x1="22" y1="115" x2="46" y2="115"/>
<line fill="none" stroke="#EDE611" stroke-width="12" stroke-linecap="round" stroke-miterlimit="10" x1="163.1" y1="53.9" x2="146.8" y2="70.2"/>
<line fill="none" stroke="#EDE611" stroke-width="12" stroke-linecap="round" stroke-miterlimit="10" x1="48.2" y1="53.5" x2="65" y2="70.2"/>
<path fill="none" stroke="#DCDCDC" stroke-width="12" stroke-linecap="round" stroke-miterlimit="10" d="M183.7,218
	c35,0,45.7-16,45.7-35.7c0-17.6-12.7-32.2-29.5-35.2c-5.1-27.8-29.5-49-58.9-49c-19.6,0-36.9,9.4-47.8,23.9
	c-24.9,1.8-44.5,22.6-44.5,47.9c0,26.5,16,48.1,58,48.1H183.7z"/>
</svg>
