<?xml version="1.0" encoding="utf-8"?>
<!-- Generator: Adobe Illustrator 20.1.0, SVG Export Plug-In . SVG Version: 6.00 Build 0)  -->
<svg version="1.1" id="Icons" xmlns="http://www.w3.org/2000/svg" xmlns:xlink="http://www.w3.org/1999/xlink" x="0px" y="0px"
	 viewBox="0 0 313.9 313.9" style="enable-background:new 0 0 313.9 313.9;" xml:space="preserve">
<style type="text/css">
	.st0{fill:#B6BBBF;}
</style>
<g>
	<g>
		<path class="st0" d="M157.2,90.5c19.1,0,37.3,8.2,49.9,22.5l4,4.6l6.1-0.6c1.8-0.2,3.4-0.2,5-0.2c29.6,0,53.6,24.1,53.6,53.6
			c0,29.6-24.1,53.6-53.6,53.6H72c-18.6,0-33.7-15.1-33.7-33.7s15.1-33.7,33.7-33.7c1.8,0,3.6,0.1,5.5,0.4l11.9,1.9l1.8-12
			c2.4-15.6,10.3-29.8,22.3-40.2C125.7,96.3,141.1,90.5,157.2,90.5 M157.2,78.5c-39.4,0-72,28.9-77.8,66.6c-2.4-0.4-4.9-0.6-7.4-0.6
			c-25.3,0-45.7,20.5-45.7,45.7S46.7,236,72,236h150.3c36.2,0,65.6-29.4,65.6-65.6s-29.4-65.6-65.6-65.6c-2.1,0-4.1,0.1-6.2,0.3
			C201.7,88.8,180.6,78.5,157.2,78.5L157.2,78.5z"/>
	</g>
</g>
</svg>
