<?xml version="1.0" encoding="utf-8"?>
<!-- Generator: Adobe Illustrator 20.1.0, SVG Export Plug-In . SVG Version: 6.00 Build 0)  -->
<svg version="1.1" id="Icons" xmlns="http://www.w3.org/2000/svg" xmlns:xlink="http://www.w3.org/1999/xlink" x="0px" y="0px"
	 viewBox="0 0 313.9 313.9" style="enable-background:new 0 0 313.9 313.9;" xml:space="preserve">
<style type="text/css">
	.st0{fill:#B6BBBF;}
</style>
<path class="st0" d="M38.9,157.5c3-15.5,16.7-27.3,33.1-27.3c1.8,0,3.6,0.1,5.5,0.4l11.9,1.9l1.8-12c2.4-15.6,10.3-29.8,22.3-40.2
	c12.1-10.5,27.6-16.2,43.6-16.2c19.1,0,37.3,8.2,49.9,22.5l4,4.6l6.1-0.6c1.8-0.2,3.4-0.2,5-0.2c29.6,0,53.6,24.1,53.6,53.6
	c0,4.7-0.6,9.2-1.7,13.5h12.3c0.9-4.4,1.4-8.9,1.4-13.5c0-36.2-29.4-65.6-65.6-65.6c-2.1,0-4.1,0.1-6.2,0.3
	c-14.4-16.3-35.5-26.5-58.9-26.5c-39.4,0-72,28.9-77.8,66.6c-2.4-0.4-4.9-0.6-7.4-0.6c-23.1,0-42.2,17.1-45.3,39.3L38.9,157.5
	L38.9,157.5z"/>
<g>
	<path class="st0" d="M307.6,163.5H6.9c-3.3,0-6-2.7-6-6s2.7-6,6-6h300.7c3.3,0,6,2.7,6,6S310.9,163.5,307.6,163.5z"/>
</g>
<g>
	<path class="st0" d="M307.6,202.2H6.9c-3.3,0-6-2.7-6-6c0-3.3,2.7-6,6-6h300.7c3.3,0,6,2.7,6,6
		C313.6,199.6,310.9,202.2,307.6,202.2z"/>
</g>
<g>
	<path class="st0" d="M307.6,241H6.9c-3.3,0-6-2.7-6-6c0-3.3,2.7-6,6-6h300.7c3.3,0,6,2.7,6,6C313.6,238.3,310.9,241,307.6,241z"/>
</g>
</svg>
