<svg id="Layer_1" xmlns="http://www.w3.org/2000/svg" viewBox="0 0 375.5 375.5"><style>.st0{fill:#5493bd}</style><path class="st0" d="M375.5 149.4c0-46.6-67.6-124.3-81.2-139.4-6.7-7.1-17.8-7.4-24.8-.8-.3.2-.5.5-.8.8-23.7 26.6-44.8 55.4-63.1 86-11.1-13.6-19.6-23.2-22.4-26.4-6.7-7.1-17.8-7.4-24.8-.8-.3.2-.5.5-.8.8-23.3 26.4-44.9 54.2-64.7 83.3-7.9-13.2-15.4-24.5-19.5-30.4-5.4-7.8-16-9.7-23.7-4.3-1.7 1.2-3.2 2.6-4.3 4.3C35 138.1 0 190.8 0 217.6c-.1 30.9 23.3 56.8 54 59.7 14.2 64.4 78 105.1 142.4 90.9 54.7-12.1 93.6-60.5 93.7-116.5-.1-2.9-.3-5.7-.7-8.5 48.8-4.1 86.2-44.9 86.1-93.8zM59.7 243.2c-14.1 0-25.6-11.5-25.6-25.6 0-8.5 11.7-31.3 25.6-54 13.9 22.7 25.6 45.5 25.6 54 0 14.2-11.4 25.6-25.6 25.6zm111 93.9c-39.8-.2-74.3-27.8-83.2-66.6 19.6-10.3 32-30.6 32-52.8-.7-9.6-3.1-19-7.2-27.7.7-3.8 2.2-7.3 4.4-10.4 16.5-25.1 34.5-49.3 53.9-72.3 37.4 44.2 85.3 112 85.3 144.6.1 47-38.1 85.2-85.2 85.2zm110.9-128h-2a440.22 440.22 0 0 0-50.5-83.4c.3-1.1.8-2.1 1.4-3 14.4-26.8 31.5-51.9 51.2-75.1 28 34.1 59.7 80.4 59.7 101.7-.1 33.1-26.8 59.8-59.8 59.8z"/><path class="st0" d="M325.7 129.8c-.1-.3-.3-.6-.4-1-1.4-3-2.9-6.1-4.5-9.1-2.5-4-7.8-5.2-11.8-2.6-3.6 2.3-5 6.9-3.2 10.8 1.5 2.6 2.8 5.4 3.9 7.9 1.7 4.4 6.6 6.6 11 5s6.7-6.6 5-11zM309.8 101.9c-7.1-10.4-14.6-20-19.6-26.2-2.8-3.8-8.1-4.6-11.9-1.8-3.8 2.8-4.6 8.1-1.8 11.9.2.2.3.4.5.7 4.9 6 12 15.1 18.7 25 2.6 3.9 8 4.9 11.9 2.3 3.9-2.7 4.9-8 2.2-11.9zM196 306.6c-1.3-4.5-6.1-7.1-10.6-5.8-4.8 1.4-9.7 2.1-14.7 2.1-4.7 0-8.5 3.8-8.5 8.5s3.8 8.5 8.5 8.5c6.6 0 13.2-.9 19.5-2.8 4.5-1.2 7.1-6 5.8-10.5zM236.5 232.3c-1.3-4.5-6.1-7.1-10.6-5.8-4.5 1.3-7.1 6.1-5.8 10.6 5.3 17.8.5 37.1-12.5 50.4-3.3 3.4-3.3 8.8.1 12.1 1.5 1.5 3.5 2.3 5.6 2.4 2.3 0 4.5-.9 6.1-2.6 17.5-17.5 24-43.2 17.1-67.1z"/></svg>