<?xml version="1.0" encoding="utf-8"?>
<!-- Generator: Adobe Illustrator 21.0.0, SVG Export Plug-In . SVG Version: 6.00 Build 0)  -->
<svg version="1.1" id="Warstwa_1" xmlns="http://www.w3.org/2000/svg" xmlns:xlink="http://www.w3.org/1999/xlink" x="0px" y="0px"
	 viewBox="0 0 70 70" style="enable-background:new 0 0 70 70;" xml:space="preserve">
<g>
	<g>
		<path style="fill:#0090FF;" d="M35,26.7c0-0.3-0.2-0.5-0.5-0.5S34,26.4,34,26.7v17.5c-3.4,0.3-6,3.1-6,6.5c0,3.6,2.9,6.5,6.5,6.5
			s6.5-2.9,6.5-6.5c0-3.4-2.6-6.2-6-6.5V26.7z M40,50.7c0,3-2.5,5.5-5.5,5.5c-3,0-5.5-2.5-5.5-5.5s2.5-5.5,5.5-5.5
			C37.5,45.2,40,47.6,40,50.7z"/>
		<path style="fill:#0090FF;" d="M39,41.2V12.7c0-2.5-2-4.5-4.5-4.5s-4.5,2-4.5,4.5v28.5c-3.7,1.7-6,5.4-6,9.5c0,5.8,4.7,10.5,10.5,10.5
			S45,56.5,45,50.7C45,46.6,42.7,42.9,39,41.2z M44,50.7c0,5.2-4.3,9.5-9.5,9.5S25,55.9,25,50.7c0-3.8,2.2-7.2,5.7-8.7
			c0.2-0.1,0.3-0.3,0.3-0.5V12.7c0-1.9,1.6-3.5,3.5-3.5s3.5,1.6,3.5,3.5v28.8c0,0.2,0.1,0.4,0.3,0.5C41.8,43.5,44,46.9,44,50.7z"/>
		<path style="fill:#0090FF;" d="M42.5,17.2h2c0.3,0,0.5-0.2,0.5-0.5c0-0.3-0.2-0.5-0.5-0.5h-2c-0.3,0-0.5,0.2-0.5,0.5
			C42,16.9,42.2,17.2,42.5,17.2z"/>
		<path style="fill:#0090FF;" d="M44.5,20.2h-2c-0.3,0-0.5,0.2-0.5,0.5s0.2,0.5,0.5,0.5h2c0.3,0,0.5-0.2,0.5-0.5S44.8,20.2,44.5,20.2z"/>
		<path style="fill:#0090FF;" d="M44.5,24.2h-2c-0.3,0-0.5,0.2-0.5,0.5s0.2,0.5,0.5,0.5h2c0.3,0,0.5-0.2,0.5-0.5S44.8,24.2,44.5,24.2z"/>
		<path style="fill:#0090FF;" d="M44.5,28.2h-2c-0.3,0-0.5,0.2-0.5,0.5s0.2,0.5,0.5,0.5h2c0.3,0,0.5-0.2,0.5-0.5S44.8,28.2,44.5,28.2z"/>
		<path style="fill:#0090FF;" d="M44.5,32.2h-2c-0.3,0-0.5,0.2-0.5,0.5c0,0.3,0.2,0.5,0.5,0.5h2c0.3,0,0.5-0.2,0.5-0.5
			C45,32.4,44.8,32.2,44.5,32.2z"/>
		<path style="fill:#0090FF;" d="M44.5,36.2h-2c-0.3,0-0.5,0.2-0.5,0.5s0.2,0.5,0.5,0.5h2c0.3,0,0.5-0.2,0.5-0.5S44.8,36.2,44.5,36.2z"/>
	</g>
</g>
</svg>
