<?xml version="1.0" encoding="utf-8"?>
<!-- Generator: Adobe Illustrator 20.1.0, SVG Export Plug-In . SVG Version: 6.00 Build 0)  -->
<svg version="1.1" id="Icons" xmlns="http://www.w3.org/2000/svg" xmlns:xlink="http://www.w3.org/1999/xlink" x="0px" y="0px"
	 viewBox="0 0 313.9 313.9" style="enable-background:new 0 0 313.9 313.9;" xml:space="preserve">
<style type="text/css">
	.st0{fill:#B6BBBF;}
	.st1{fill:#00AEBD;}
</style>
<g>
	<g>
		<g>
			<path class="st0" d="M157.2,64.1c19.1,0,37.3,8.2,49.9,22.5l4,4.6l6.1-0.6c1.8-0.2,3.4-0.2,5-0.2c29.6,0,53.6,24.1,53.6,53.6
				s-24.1,53.6-53.6,53.6H72c-18.6,0-33.7-15.1-33.7-33.7s15.1-33.7,33.7-33.7c1.8,0,3.6,0.1,5.5,0.4l11.9,1.9l1.8-12
				c2.4-15.6,10.3-29.8,22.3-40.2C125.7,69.9,141.1,64.1,157.2,64.1 M157.2,52.1c-39.4,0-72,28.9-77.8,66.6
				c-2.4-0.4-4.9-0.6-7.4-0.6c-25.3,0-45.7,20.5-45.7,45.7c0,25.3,20.5,45.7,45.7,45.7h150.3c36.2,0,65.6-29.4,65.6-65.6
				s-29.4-65.6-65.6-65.6c-2.1,0-4.1,0.1-6.2,0.3C201.7,62.4,180.6,52.1,157.2,52.1L157.2,52.1z"/>
		</g>
	</g>
</g>
<g>
	<g>
		<path class="st1" d="M163.4,313.9c-1.1,0-2.1-0.3-3.1-0.9c-2.8-1.7-3.8-5.4-2.1-8.2l39.9-66.4c1.7-2.8,5.4-3.8,8.2-2.1
			s3.8,5.4,2.1,8.2L168.5,311C167.4,312.9,165.4,313.9,163.4,313.9z"/>
	</g>
	<g>
		<path class="st1" d="M84.9,313.9c-1.1,0-2.1-0.3-3.1-0.9c-2.8-1.7-3.8-5.4-2.1-8.2l39.9-66.4c1.7-2.8,5.4-3.8,8.2-2.1
			c2.8,1.7,3.8,5.4,2.1,8.2L90,311C88.9,312.9,86.9,313.9,84.9,313.9z"/>
	</g>
	<g>
		<path class="st1" d="M139.9,287.7c-1.1,0-2.1-0.3-3.1-0.9c-2.8-1.7-3.8-5.4-2.1-8.2l24.1-40.2c1.7-2.8,5.4-3.8,8.2-2.1
			s3.8,5.4,2.1,8.2L145,284.8C143.9,286.6,141.9,287.7,139.9,287.7z"/>
	</g>
	<g>
		<path class="st1" d="M61.4,287.7c-1.1,0-2.1-0.3-3.1-0.9c-2.8-1.7-3.8-5.4-2.1-8.2l24.1-40.2c1.7-2.8,5.4-3.8,8.2-2.1
			c2.8,1.7,3.8,5.4,2.1,8.2l-24.1,40.2C65.4,286.6,63.4,287.7,61.4,287.7z"/>
	</g>
	<g>
		<path class="st1" d="M218.4,287.7c-1.1,0-2.1-0.3-3.1-0.9c-2.8-1.7-3.8-5.4-2.1-8.2l24.1-40.2c1.7-2.8,5.4-3.8,8.2-2.1
			s3.8,5.4,2.1,8.2l-24.1,40.2C222.4,286.6,220.4,287.7,218.4,287.7z"/>
	</g>
</g>
</svg>
