<?xml version="1.0" encoding="utf-8"?>
<!-- Generator: Adobe Illustrator 20.1.0, SVG Export Plug-In . SVG Version: 6.00 Build 0)  -->
<svg version="1.1" id="Icons" xmlns="http://www.w3.org/2000/svg" xmlns:xlink="http://www.w3.org/1999/xlink" x="0px" y="0px"
	 viewBox="0 0 313.9 313.9" style="enable-background:new 0 0 313.9 313.9;" xml:space="preserve">
<style type="text/css">
	.st0{fill:#B6BBBF;}
	.st1{fill:#00AEBD;}
</style>
<g>
	<g>
		<g>
			<path class="st0" d="M157.2,64.1c19.1,0,37.3,8.2,49.9,22.5l4,4.6l6.1-0.6c1.8-0.2,3.4-0.2,5-0.2c29.6,0,53.6,24.1,53.6,53.6
				s-24.1,53.6-53.6,53.6H72c-18.6,0-33.7-15.1-33.7-33.7c0-18.6,15.1-33.7,33.7-33.7c1.8,0,3.6,0.1,5.5,0.4l11.9,1.9l1.8-12
				c2.4-15.6,10.3-29.8,22.3-40.2C125.7,69.9,141.1,64.1,157.2,64.1 M157.2,52.1c-39.4,0-72,28.9-77.8,66.6
				c-2.4-0.4-4.9-0.6-7.4-0.6c-25.2,0-45.7,20.5-45.7,45.7c0,25.3,20.5,45.7,45.7,45.7h150.3c36.2,0,65.6-29.4,65.6-65.6
				c0-36.2-29.4-65.6-65.6-65.6c-2.1,0-4.1,0.1-6.2,0.3C201.7,62.4,180.6,52.1,157.2,52.1L157.2,52.1z"/>
		</g>
	</g>
</g>
<path class="st1" d="M188.5,286.1l-19.8-11.4l19.7-11.4c2.9-1.7,3.8-5.3,2.2-8.2c-1.7-2.9-5.3-3.8-8.2-2.2l-19.7,11.4l0-22.8
	c0-3.3-2.7-6-6-6c0,0,0,0,0,0c-3.3,0-6,2.7-6,6l0,22.8L131,253c-2.9-1.7-6.5-0.7-8.2,2.2c-1.7,2.9-0.7,6.5,2.2,8.2l19.8,11.4
	L125,286.2c-2.9,1.7-3.8,5.3-2.2,8.2c1.1,1.9,3.1,3,5.2,3c1,0,2.1-0.3,3-0.8l19.7-11.4l0,22.8c0,3.3,2.7,6,6,6c0,0,0,0,0,0
	c3.3,0,6-2.7,6-6l0-22.8l19.8,11.4c0.9,0.5,2,0.8,3,0.8c2.1,0,4.1-1.1,5.2-3C192.4,291.4,191.4,287.7,188.5,286.1z"/>
<path class="st1" d="M91.6,276.4l-14.1-8.1l14.1-8.1c2.9-1.7,3.9-5.3,2.2-8.2c-1.7-2.9-5.3-3.9-8.2-2.2l-14.1,8.1v-16.3
	c0-3.3-2.7-6-6-6c-3.3,0-6,2.7-6,6v16.3l-14.1-8.1c-2.9-1.7-6.5-0.7-8.2,2.2c-1.7,2.9-0.7,6.5,2.2,8.2l14.1,8.1l-14.1,8.1
	c-2.9,1.7-3.9,5.3-2.2,8.2c1.1,1.9,3.1,3,5.2,3c1,0,2-0.3,3-0.8l14.1-8.1v16.3c0,3.3,2.7,6,6,6c3.3,0,6-2.7,6-6v-16.3l14.1,8.1
	c0.9,0.5,2,0.8,3,0.8c2.1,0,4.1-1.1,5.2-3C95.5,281.7,94.5,278,91.6,276.4z"/>
<path class="st1" d="M274.5,276.4l-14.1-8.1l14.1-8.1c2.9-1.7,3.9-5.3,2.2-8.2c-1.7-2.9-5.3-3.9-8.2-2.2l-14.1,8.1v-16.3
	c0-3.3-2.7-6-6-6c-3.3,0-6,2.7-6,6v16.3l-14.1-8.1c-2.9-1.7-6.5-0.7-8.2,2.2c-1.7,2.9-0.7,6.5,2.2,8.2l14.1,8.1l-14.1,8.1
	c-2.9,1.7-3.9,5.3-2.2,8.2c1.1,1.9,3.1,3,5.2,3c1,0,2.1-0.3,3-0.8l14.1-8.1v16.3c0,3.3,2.7,6,6,6c3.3,0,6-2.7,6-6v-16.3l14.1,8.1
	c0.9,0.5,2,0.8,3,0.8c2.1,0,4.1-1.1,5.2-3C278.3,281.7,277.4,278,274.5,276.4z"/>
</svg>
