<?xml version="1.0" encoding="utf-8"?>
<!-- Generator: Adobe Illustrator 18.1.1, SVG Export Plug-In . SVG Version: 6.00 Build 0)  -->
<!DOCTYPE svg PUBLIC "-//W3C//DTD SVG 1.1//EN" "http://www.w3.org/Graphics/SVG/1.1/DTD/svg11.dtd">
<svg version="1.1" id="Layer_1" xmlns="http://www.w3.org/2000/svg" xmlns:xlink="http://www.w3.org/1999/xlink" x="0px" y="0px"
	 viewBox="0 0 250 250" enable-background="new 0 0 250 250" xml:space="preserve">
<path fill="none" stroke="#EDE611" stroke-width="12" stroke-linecap="round" stroke-linejoin="round" stroke-miterlimit="10" d="
	M138.2,115.6c2.4-22.3-9.6-44.6-31.1-54.3c-7.3-3.3-15-4.8-22.6-4.7c13.1,15.2,17,37.1,8.2,56.6s-27.8,31.1-47.8,31.4
	c4.9,5.7,11.1,10.5,18.5,13.8c7.4,3.3,15.1,4.8,22.6,4.7"/>
<path fill="none" stroke="#DCDCDC" stroke-width="12" stroke-linecap="round" stroke-miterlimit="10" d="M175.4,193
	c22.8,0,29.7-10.4,29.7-23.2c0-11.4-8.3-21-19.2-22.9c-3.3-18.1-19.2-31.8-38.3-31.8c-12.7,0-24,6.1-31.1,15.5
	c-16.2,1.2-28.9,14.7-28.9,31.2c0,17.2,10.4,31.3,37.7,31.3H175.4z"/>
</svg>
