<?xml version="1.0" encoding="utf-8"?>
<!-- Generator: Adobe Illustrator 18.1.1, SVG Export Plug-In . SVG Version: 6.00 Build 0)  -->
<!DOCTYPE svg PUBLIC "-//W3C//DTD SVG 1.1//EN" "http://www.w3.org/Graphics/SVG/1.1/DTD/svg11.dtd">
<svg version="1.1" id="Layer_1" xmlns="http://www.w3.org/2000/svg" xmlns:xlink="http://www.w3.org/1999/xlink" x="0px" y="0px"
	 viewBox="0 0 250 250" enable-background="new 0 0 250 250" xml:space="preserve">
<path fill="none" stroke="#EDE611" stroke-width="12" stroke-linecap="round" stroke-linejoin="round" stroke-miterlimit="10" d="
	M122.8,92c0.5-20.8-11.2-40.9-31.4-49.9c-7.3-3.3-15-4.8-22.6-4.7c13.1,15.2,17,37.1,8.2,56.6s-27.8,31.1-47.8,31.4
	c4.9,5.7,11.1,10.5,18.5,13.8c2,0.9,4.1,1.7,6.2,2.3"/>
<path fill="none" stroke="#DCDCDC" stroke-width="12" stroke-linecap="round" stroke-miterlimit="10" d="M185.7,209
	c35,0,45.7-16,45.7-35.7c0-17.6-12.7-32.2-29.5-35.2c-5.1-27.8-29.5-49-58.9-49c-19.6,0-36.9,9.4-47.8,23.9
	c-24.9,1.8-44.5,22.6-44.5,47.9c0,26.5,16,48.1,58,48.1H185.7z"/>
</svg>
